<svg width="65" height="79" viewBox="0 0 65 79" fill="none" xmlns="http://www.w3.org/2000/svg">
<path d="M32.5876 34.7732C35.2359 34.7732 37.3828 32.6912 37.3828 30.123C37.3828 27.5547 35.2359 25.4728 32.5876 25.4728C29.9393 25.4728 27.7924 27.5547 27.7924 30.123C27.7924 32.6912 29.9393 34.7732 32.5876 34.7732Z" fill="#0FFBF9"/>
<path d="M19.1607 39.3686L18.0995 39.1055C10.2176 37.1751 5.69641 33.8926 5.69641 30.1125C5.69641 26.3298 10.2203 23.05 18.0995 21.1195L19.1607 20.859L19.4589 21.8776C20.2555 24.5445 21.2762 27.1436 22.5106 29.6488L22.739 30.1125L22.5106 30.5762C21.2749 33.085 20.2513 35.685 19.4589 38.3526L19.1607 39.3686ZM17.6106 23.4902C11.6226 25.1263 7.94493 27.622 7.94493 30.1125C7.94493 32.5978 11.6199 35.0962 17.6106 36.7296C18.344 34.4683 19.2305 32.2566 20.2567 30.1125C19.2231 27.9649 18.3391 25.7525 17.6106 23.4902ZM46.0113 39.3686L45.7158 38.3474C44.917 35.68 43.8955 33.0802 42.6613 30.5736L42.433 30.1125L42.6613 29.6462C43.8971 27.1427 44.9152 24.5401 45.7158 21.8724L46.0113 20.8564L47.0724 21.1169C54.957 23.0473 59.4755 26.3272 59.4755 30.1125C59.4755 33.8952 54.9543 37.1751 47.0724 39.1055L46.0113 39.3686ZM44.9098 30.1125C45.9844 32.3686 46.879 34.5882 47.5613 36.7296C53.552 35.0962 57.2297 32.5978 57.2297 30.1125C57.2297 27.622 53.5547 25.1289 47.5613 23.4902C46.8287 25.7518 45.9429 27.9641 44.9098 30.1125Z" fill="#0FFBF9"/>
<path d="M17.5954 23.4798L17.2999 22.4638C15.0809 14.888 15.7525 9.46148 19.1454 7.57014C22.4631 5.70745 27.801 7.90881 33.3914 13.4708L34.1544 14.2315L33.3914 14.9896C31.4058 16.9922 29.591 19.1476 27.9649 21.4348L27.6613 21.8568L27.1348 21.8985C24.2753 22.1163 21.439 22.5598 18.6538 23.2245L17.5954 23.4798ZM21.8453 9.07592C21.2435 9.07592 20.7116 9.20357 20.263 9.45367C18.0386 10.6963 17.6464 15.0235 19.1777 20.8642C21.5712 20.351 23.9863 19.9837 26.4202 19.7779C27.8293 17.8398 29.3664 15.9923 31.022 14.2472C27.5216 10.9464 24.2174 9.07592 21.8453 9.07592ZM43.3284 53.3219C40.137 53.3219 36.0375 50.9877 31.7823 46.7517L31.022 45.9936L31.7823 45.2381C33.7682 43.2323 35.5838 41.0743 37.2115 38.7851L37.5124 38.3683L38.0335 38.3188C40.894 38.1049 43.7314 37.6631 46.5172 36.998L47.5783 36.7375L47.8765 37.7561C50.0847 45.3266 49.4158 50.761 46.0283 52.6523C45.2058 53.1045 44.2738 53.3356 43.3284 53.3219ZM34.1544 45.9753C37.6521 49.2761 40.959 51.1492 43.3284 51.1492C43.9329 51.1492 44.4648 51.0189 44.9107 50.7714C47.1377 49.5262 47.5326 45.1912 45.996 39.3504C43.6051 39.8662 41.1874 40.2362 38.7481 40.442C37.345 42.3831 35.8104 44.2317 34.1544 45.9753Z" fill="#0FFBF9"/>
<path d="M47.5777 23.4798L46.5166 23.2219C43.731 22.5551 40.8935 22.1116 38.0329 21.8959L37.5118 21.8516L37.2109 21.4295C35.5855 19.1411 33.7697 16.9856 31.7817 14.9844L31.0214 14.2263L31.7817 13.4708C37.3694 7.9114 42.7046 5.71005 46.0277 7.57013C49.4179 9.46407 50.0922 14.8906 47.8759 22.4638L47.5777 23.4798ZM38.7475 19.7779C41.3103 19.9993 43.7388 20.3719 45.9954 20.8642C47.5293 15.0235 47.1371 10.6963 44.9101 9.45105C42.6965 8.20839 38.5299 10.1102 34.1538 14.2471C35.8086 15.9926 37.3452 17.837 38.7475 19.7779ZM21.8447 53.3218C20.8994 53.3349 19.9676 53.1039 19.1448 52.6523C15.7519 50.761 15.0803 45.3292 17.2966 37.7561L17.5867 36.7374L18.6478 36.998C21.2375 37.631 24.0905 38.0765 27.1315 38.3188L27.6527 38.3683L27.9562 38.7851C29.5788 41.0724 31.3948 43.2321 33.3828 45.2381L34.1457 45.9935L33.3828 46.7517C29.1302 50.9902 25.0307 53.3218 21.8447 53.3218ZM19.1771 39.353C17.6458 45.1938 18.038 49.5287 20.2624 50.774C22.4786 51.9984 26.6318 50.1097 31.0214 45.9753C29.3665 44.2296 27.8293 42.3822 26.4196 40.4446C23.9833 40.2356 21.5638 39.871 19.1771 39.353Z" fill="#0FFBF9"/>
<path d="M32.5882 40.7207C30.7426 40.7207 28.8487 40.6452 26.9467 40.4915L26.4202 40.4472L26.1166 40.0251C25.0441 38.5295 24.0349 36.9921 23.0917 35.4166C22.1555 33.8369 21.2853 32.2213 20.4832 30.5737L20.2576 30.1125L20.4832 29.6462C21.2865 27.9998 22.1542 26.3846 23.0917 24.8058C24.0239 23.2532 25.042 21.7005 26.1166 20.1947L26.4202 19.7779L26.9467 19.731C30.6993 19.4262 34.4716 19.4262 38.2242 19.731L38.7454 19.7805L39.0489 20.1973C41.1975 23.19 43.0846 26.3515 44.6904 29.6488L44.9134 30.1151L44.6904 30.5763C43.089 33.8758 41.2018 37.0377 39.0489 40.0278L38.7454 40.4498L38.2242 40.4941C36.3276 40.6426 34.431 40.7207 32.5882 40.7207ZM27.6613 38.3657C30.979 38.6079 34.1973 38.6079 37.5123 38.3657C39.363 35.7376 41.0081 32.9789 42.4338 30.1125C41.0131 27.2436 39.3678 24.4845 37.5123 21.8594C34.2335 21.6145 30.9401 21.6145 27.6613 21.8594C25.8043 24.4836 24.1589 27.2428 22.7398 30.1125C24.1686 32.9773 25.8136 35.7358 27.6613 38.3657Z" fill="#0FFBF9"/>
<path d="M14.0029 69.0693H11.5244V74H9.30078V61.2031H13.8008C15.2773 61.2031 16.417 61.5342 17.2197 62.1963C18.0225 62.8584 18.4238 63.8164 18.4238 65.0703C18.4238 65.9258 18.2158 66.6436 17.7998 67.2236C17.3896 67.7979 16.8154 68.2402 16.0771 68.5508L18.9512 73.8857V74H16.5693L14.0029 69.0693ZM11.5244 67.2852H13.8096C14.5596 67.2852 15.1455 67.0977 15.5674 66.7227C15.9893 66.3418 16.2002 65.8232 16.2002 65.167C16.2002 64.4814 16.0039 63.9512 15.6113 63.5762C15.2246 63.2012 14.6445 63.0078 13.8711 62.9961H11.5244V67.2852ZM24.5146 74.1758C23.1611 74.1758 22.0625 73.751 21.2188 72.9014C20.3809 72.0459 19.9619 70.9092 19.9619 69.4912V69.2275C19.9619 68.2783 20.1436 67.4316 20.5068 66.6875C20.876 65.9375 21.3916 65.3545 22.0537 64.9385C22.7158 64.5225 23.4541 64.3145 24.2686 64.3145C25.5635 64.3145 26.5625 64.7275 27.2656 65.5537C27.9746 66.3799 28.3291 67.5488 28.3291 69.0605V69.9219H22.1152C22.1797 70.707 22.4404 71.3281 22.8975 71.7852C23.3604 72.2422 23.9404 72.4707 24.6377 72.4707C25.6162 72.4707 26.4131 72.0752 27.0283 71.2842L28.1797 72.3828C27.7988 72.9512 27.2891 73.3936 26.6504 73.71C26.0176 74.0205 25.3057 74.1758 24.5146 74.1758ZM24.2598 66.0283C23.6738 66.0283 23.1992 66.2334 22.8359 66.6436C22.4785 67.0537 22.25 67.625 22.1504 68.3574H26.2197V68.1992C26.1729 67.4844 25.9824 66.9453 25.6484 66.582C25.3145 66.2129 24.8516 66.0283 24.2598 66.0283ZM35.6768 74C35.583 73.8184 35.501 73.5225 35.4307 73.1123C34.751 73.8213 33.9189 74.1758 32.9346 74.1758C31.9795 74.1758 31.2002 73.9033 30.5967 73.3584C29.9932 72.8135 29.6914 72.1396 29.6914 71.3369C29.6914 70.3232 30.0664 69.5469 30.8164 69.0078C31.5723 68.4629 32.6504 68.1904 34.0508 68.1904H35.3604V67.5664C35.3604 67.0742 35.2227 66.6816 34.9473 66.3887C34.6719 66.0898 34.2529 65.9404 33.6904 65.9404C33.2041 65.9404 32.8057 66.0635 32.4951 66.3096C32.1846 66.5498 32.0293 66.8574 32.0293 67.2324H29.8936C29.8936 66.7109 30.0664 66.2246 30.4121 65.7734C30.7578 65.3164 31.2266 64.959 31.8184 64.7012C32.416 64.4434 33.0811 64.3145 33.8135 64.3145C34.9268 64.3145 35.8145 64.5957 36.4766 65.1582C37.1387 65.7148 37.4785 66.5 37.4961 67.5137V71.8027C37.4961 72.6582 37.6162 73.3408 37.8564 73.8506V74H35.6768ZM33.3301 72.4619C33.752 72.4619 34.1475 72.3594 34.5166 72.1543C34.8916 71.9492 35.1729 71.6738 35.3604 71.3281V69.5352H34.209C33.418 69.5352 32.8232 69.6729 32.4248 69.9482C32.0264 70.2236 31.8271 70.6133 31.8271 71.1172C31.8271 71.5273 31.9619 71.8555 32.2314 72.1016C32.5068 72.3418 32.873 72.4619 33.3301 72.4619ZM43.6396 72.4707C44.1729 72.4707 44.6152 72.3154 44.9668 72.0049C45.3184 71.6943 45.5059 71.3105 45.5293 70.8535H47.542C47.5186 71.4453 47.334 71.999 46.9883 72.5146C46.6426 73.0244 46.1738 73.4287 45.582 73.7275C44.9902 74.0264 44.3516 74.1758 43.666 74.1758C42.3359 74.1758 41.2812 73.7451 40.502 72.8838C39.7227 72.0225 39.333 70.833 39.333 69.3154V69.0957C39.333 67.6484 39.7197 66.4912 40.4932 65.624C41.2666 64.751 42.3213 64.3145 43.6572 64.3145C44.7881 64.3145 45.708 64.6455 46.417 65.3076C47.1318 65.9639 47.5068 66.8281 47.542 67.9004H45.5293C45.5059 67.3555 45.3184 66.9072 44.9668 66.5557C44.6211 66.2041 44.1787 66.0283 43.6396 66.0283C42.9482 66.0283 42.415 66.2803 42.04 66.7842C41.665 67.2822 41.4746 68.041 41.4688 69.0605V69.4033C41.4688 70.4346 41.6533 71.2051 42.0225 71.7148C42.3975 72.2188 42.9365 72.4707 43.6396 72.4707ZM51.8311 62.1787V64.4902H53.5098V66.0723H51.8311V71.3809C51.8311 71.7441 51.9014 72.0078 52.042 72.1719C52.1885 72.3301 52.4463 72.4092 52.8154 72.4092C53.0615 72.4092 53.3105 72.3799 53.5625 72.3213V73.9736C53.0762 74.1084 52.6074 74.1758 52.1562 74.1758C50.5156 74.1758 49.6953 73.2705 49.6953 71.46V66.0723H48.1309V64.4902H49.6953V62.1787H51.8311Z" fill="#0FFBF9"/>
</svg>
