<svg width="60" height="76" viewBox="0 0 60 76" fill="none" xmlns="http://www.w3.org/2000/svg">
<path d="M6.80994 65.1677H4.33142V70.0984H2.10779V57.3015H6.60779C8.08435 57.3015 9.224 57.6326 10.0267 58.2947C10.8295 58.9568 11.2308 59.9148 11.2308 61.1687C11.2308 62.0242 11.0228 62.7419 10.6068 63.322C10.1967 63.8962 9.62244 64.3386 8.88416 64.6492L11.7582 69.9841V70.0984H9.37634L6.80994 65.1677ZM4.33142 63.3835H6.61658C7.36658 63.3835 7.95251 63.196 8.37439 62.821C8.79626 62.4402 9.0072 61.9216 9.0072 61.2654C9.0072 60.5798 8.81091 60.0496 8.41833 59.6746C8.03162 59.2996 7.45154 59.1062 6.6781 59.0945H4.33142V63.3835ZM17.3217 70.2742C15.9681 70.2742 14.8695 69.8494 14.0258 68.9998C13.1879 68.1443 12.7689 67.0076 12.7689 65.5896V65.3259C12.7689 64.3767 12.9506 63.53 13.3138 62.7859C13.683 62.0359 14.1986 61.4529 14.8607 61.0369C15.5228 60.6208 16.2611 60.4128 17.0756 60.4128C18.3705 60.4128 19.3695 60.8259 20.0726 61.6521C20.7816 62.4783 21.1361 63.6472 21.1361 65.1589V66.0203H14.9222C14.9867 66.8054 15.2474 67.4265 15.7045 67.8835C16.1674 68.3406 16.7474 68.5691 17.4447 68.5691C18.4232 68.5691 19.2201 68.1736 19.8353 67.3826L20.9867 68.4812C20.6058 69.0496 20.0961 69.4919 19.4574 69.8083C18.8246 70.1189 18.1127 70.2742 17.3217 70.2742ZM17.0668 62.1267C16.4808 62.1267 16.0062 62.3318 15.6429 62.7419C15.2855 63.1521 15.057 63.7234 14.9574 64.4558H19.0267V64.2976C18.9799 63.5828 18.7894 63.0437 18.4554 62.6804C18.1215 62.3113 17.6586 62.1267 17.0668 62.1267ZM22.4017 65.2732C22.4017 63.8083 22.7416 62.6335 23.4213 61.7488C24.101 60.8582 25.0121 60.4128 26.1547 60.4128C27.1625 60.4128 27.9769 60.7644 28.598 61.4675V56.5984H30.7338V70.0984H28.8002L28.6947 69.114C28.056 69.8875 27.2035 70.2742 26.1371 70.2742C25.0238 70.2742 24.1215 69.8259 23.4301 68.9294C22.7445 68.033 22.4017 66.8142 22.4017 65.2732ZM24.5375 65.4578C24.5375 66.4246 24.722 67.1804 25.0912 67.7253C25.4662 68.2644 25.9965 68.5339 26.682 68.5339C27.5551 68.5339 28.1937 68.1443 28.598 67.365V63.3044C28.2054 62.5427 27.5726 62.1619 26.6996 62.1619C26.0082 62.1619 25.475 62.4373 25.1 62.988C24.725 63.533 24.5375 64.3562 24.5375 65.4578ZM38.723 69.1667C38.0961 69.905 37.2054 70.2742 36.0511 70.2742C35.0199 70.2742 34.2377 69.9724 33.7045 69.3689C33.1771 68.7654 32.9135 67.8923 32.9135 66.7498V60.5886H35.0492V66.7234C35.0492 67.9304 35.5502 68.5339 36.5521 68.5339C37.5892 68.5339 38.2894 68.1619 38.6527 67.4177V60.5886H40.7885V70.0984H38.7758L38.723 69.1667ZM46.3783 63.7175L48.1888 60.5886H50.5619L47.6527 65.2732L50.6586 70.0984H48.3031L46.4047 66.8464L44.515 70.0984H42.142L45.1478 65.2732L42.2474 60.5886H44.6029L46.3783 63.7175Z" fill="#0FFBF9"/>
<g clip-path="url(#clip0)">
<path d="M38.5983 35.7538C40.5078 35.5959 41.9815 33.9674 41.8877 32.0231C41.7841 30.0788 40.1394 28.5189 38.1443 28.5189H38.0062C37.0126 28.5534 36.0737 28.9691 35.3961 29.6747C34.7185 30.3803 34.3576 31.3179 34.3927 32.2815C34.4601 33.3039 34.8877 34.1253 35.4798 34.7314C33.1756 39.0682 29.7315 42.2518 24.4979 44.9329C20.9864 46.7114 17.2759 47.3845 13.6624 46.9028C10.6377 46.496 8.27425 45.185 6.82688 43.0812C4.65747 39.8912 4.4601 36.4604 6.26932 33.0136C7.58675 30.5302 9.55879 28.7087 10.868 27.8203C10.4745 26.7516 10.1682 25.6546 9.95188 24.5394C0.221619 31.2942 1.21504 40.5403 4.17063 44.9026C6.37293 48.0926 10.868 50.1278 15.794 50.1278C17.1147 50.1278 18.493 50.0369 19.8384 49.7115C28.3894 48.1166 34.8565 43.1482 38.5637 35.8224L38.5983 35.7538ZM50.3252 27.7884C45.2381 21.989 37.7414 18.799 29.2019 18.799H28.0785C27.5308 17.6267 26.2446 16.8898 24.7973 16.8898H24.7035C22.6312 16.8898 21.0193 18.6172 21.0868 20.6205C21.1575 22.5297 22.8252 24.1247 24.8302 24.1247H24.9946C25.706 24.0966 26.3941 23.8712 26.9772 23.4751C27.5603 23.0789 28.0139 22.5288 28.2841 21.8901H29.4996C34.5637 21.8901 39.3532 23.3272 43.7298 26.128C47.0703 28.2605 49.4782 31.0709 50.8219 34.4172C52.0045 37.1494 51.9354 39.8338 50.7183 42.0683C48.8516 45.5646 45.6904 47.4164 41.5275 47.4164C38.8976 47.4164 36.3368 46.6189 35.016 46.0463C34.2282 46.6779 32.9091 47.7322 31.9568 48.3733C34.8532 49.643 37.7743 50.3751 40.6016 50.3751C47.0094 50.3751 51.7726 46.8772 53.5802 43.4975C55.5489 39.6759 55.3877 33.2369 50.3581 27.7214L50.3252 27.7884ZM16.3516 36.9006C16.3965 37.839 16.8104 38.7251 17.5081 39.3768C18.2059 40.0286 19.1345 40.3964 20.1032 40.4048H20.2331C20.727 40.3934 21.2135 40.2864 21.6641 40.09C22.1147 39.8937 22.5202 39.6119 22.8569 39.2614C23.1936 38.9108 23.4545 38.4985 23.6245 38.0487C23.7945 37.5989 23.87 37.1207 23.8466 36.6422C23.8466 34.7298 22.1427 33.1348 20.1377 33.1348H19.9996C19.8729 33.1348 19.6756 33.1348 19.5045 33.2034C16.7808 28.7422 15.6312 23.9572 16.0588 18.7974C16.317 14.9104 17.6361 11.537 19.9996 8.72981C21.9716 6.34529 25.6789 5.15702 28.215 5.0996C35.3088 4.96562 38.2726 13.5467 38.4963 16.9536L41.7858 17.909C41.0226 7.4586 34.3252 1.97661 27.9173 1.97661C21.9042 1.97661 16.3516 6.21291 14.1164 12.427C11.0654 20.7194 13.0703 28.6768 16.8137 35.0568C16.4897 35.4635 16.2923 36.2036 16.3516 36.9006Z" fill="#0FFBF9"/>
</g>
<defs>
<clipPath id="clip0">
<rect width="52.6316" height="51.0398" fill="white" transform="translate(2.12292 0.655945)"/>
</clipPath>
</defs>
</svg>
